<svg xmlns="http://www.w3.org/2000/svg" viewBox="0 0 853.4 775.48"><g id="Layer_2" data-name="Layer 2"><g id="Layer_1-2" data-name="Layer 1"><polygon points="852.23 729.89 0.28 729.89 1.27 23.66 853.22 23.66 852.23 729.89" fill="#4c4ab2"/><polygon points="802.1 663.14 798.63 656.35 56.08 656.35 52.62 663.14 802.1 663.14" fill="#b091a0"/><polygon points="52.62 663.14 56.08 656.35 55.88 516.09 52.42 523.02 52.62 663.14" fill="#543041"/><polygon points="801.95 523.02 798.48 516.09 798.63 656.35 802.1 663.14 801.95 523.02" fill="#543041"/><polygon points="801.94 506.54 798.46 502.94 55.87 502.94 52.4 506.54 801.94 506.54" fill="#b091a0"/><polygon points="801.78 361.37 798.31 357.74 798.46 502.94 801.94 506.54 801.78 361.37" fill="#543041"/><polygon points="52.4 506.54 55.87 502.94 55.66 357.74 52.2 361.37 52.4 506.54" fill="#543041"/><polygon points="801.76 344.88 798.29 344.59 55.64 344.59 52.17 344.88 801.76 344.88" fill="#b091a0"/><polygon points="801.61 199.68 798.14 199.35 798.29 344.59 801.76 344.88 801.61 199.68" fill="#543041"/><polygon points="52.17 344.88 55.64 344.59 55.44 199.35 51.97 199.68 52.17 344.88" fill="#543041"/><polygon points="801.44 42.62 797.97 45.5 798.12 186.21 801.59 183.19 801.44 42.62" fill="#543041"/><polygon points="51.75 42.62 55.22 45.5 797.97 45.5 801.44 42.62 51.75 42.62" fill="#563142"/><polygon points="51.94 183.19 55.42 186.21 55.22 45.5 51.75 42.62 51.94 183.19" fill="#543041"/><polygon points="828.13 703.74 802.1 663.14 52.62 663.14 26.7 703.74 828.13 703.74" fill="#b091a0"/><polygon points="26.7 703.74 52.62 663.14 52.42 523.02 26.48 549.61 26.7 703.74" fill="#5e3648"/><polygon points="827.97 549.61 801.95 523.02 802.1 663.14 828.13 703.74 827.97 549.61" fill="#5e3648"/><polygon points="827.95 531.48 801.94 506.54 52.4 506.54 26.45 531.48 827.95 531.48" fill="#b091a0"/><polygon points="827.78 371.79 801.78 361.37 801.94 506.54 827.95 531.48 827.78 371.79" fill="#5e3648"/><polygon points="26.45 531.48 52.4 506.54 52.2 361.37 26.22 371.79 26.45 531.48" fill="#5e3648"/><polygon points="827.76 353.65 801.76 344.88 52.17 344.88 26.2 353.65 827.76 353.65" fill="#b091a0"/><polygon points="26.2 353.65 52.17 344.88 51.97 199.68 25.97 193.93 26.2 353.65" fill="#5e3648"/><polygon points="25.97 193.93 51.97 199.68 801.61 199.68 827.6 193.93 25.97 193.93" fill="#4d2d3b"/><polygon points="827.6 193.93 801.61 199.68 801.76 344.88 827.76 353.65 827.6 193.93" fill="#5e3648"/><polygon points="827.41 21.15 801.44 42.62 801.59 183.19 827.58 175.79 827.41 21.15" fill="#5e3648"/><polygon points="25.72 21.15 51.75 42.62 801.44 42.62 827.41 21.15 25.72 21.15" fill="#61384b"/><polygon points="25.94 175.79 51.94 183.19 51.75 42.62 25.72 21.15 25.94 175.79" fill="#5e3648"/><polygon points="836.96 715.95 828.13 703.74 26.7 703.74 17.89 715.95 836.96 715.95" fill="#b091a0"/><polygon points="836.8 554.75 827.97 549.61 828.13 703.74 836.96 715.95 836.8 554.75" fill="#663a4e"/><polygon points="17.89 715.95 26.7 703.74 26.48 549.61 17.66 554.75 17.89 715.95" fill="#663a4e"/><polygon points="836.78 539.64 827.95 531.48 26.45 531.48 17.64 539.64 836.78 539.64" fill="#b091a0"/><polygon points="836.61 372.75 827.78 371.79 827.95 531.48 836.78 539.64 836.61 372.75" fill="#663a4e"/><polygon points="17.64 539.64 26.45 531.48 26.22 371.79 17.4 372.75 17.64 539.64" fill="#663a4e"/><polygon points="836.59 357.64 827.76 353.65 26.2 353.65 17.38 357.64 836.59 357.64" fill="#b091a0"/><polygon points="836.42 190.72 827.6 193.93 827.76 353.65 836.59 357.64 836.42 190.72" fill="#663a4e"/><polygon points="17.14 190.72 25.97 193.93 827.6 193.93 836.42 190.72 17.14 190.72" fill="#543041"/><polygon points="17.38 357.64 26.2 353.65 25.97 193.93 17.14 190.72 17.38 357.64" fill="#663a4e"/><polygon points="836.23 13.88 827.41 21.15 827.58 175.79 836.4 175.6 836.23 13.88" fill="#663a4e"/><polygon points="16.89 13.88 25.72 21.15 827.41 21.15 836.23 13.88 16.89 13.88" fill="#693e52"/><polygon points="17.12 175.6 25.94 175.79 25.72 21.15 16.89 13.88 17.12 175.6" fill="#663a4e"/><polygon points="19.43 0.03 13.95 0.03 8.47 0.03 2.98 0.03 0.99 0.03 0 0.03 0 2.52 0 8.01 0 13.49 0 18.97 0 24.45 0 29.93 0 35.41 0 40.9 0 46.38 0 51.86 0 57.34 0 62.83 0 68.31 0 73.79 0 79.27 0 84.75 0 90.23 0 95.72 0 101.2 0 106.68 0 112.16 0 117.64 0 123.13 0 128.61 0 134.09 0 139.57 0 145.06 0 150.54 0 156.02 0 161.5 0 166.98 0 172.47 0 177.95 0 183.43 0 188.91 0 194.39 0 199.88 0 205.36 0 210.84 0 216.32 0 221.8 0 227.28 0 232.77 0 238.25 0 243.73 0 249.21 0 254.69 0 260.18 0 265.66 0 271.14 0 276.62 0 282.11 0 287.59 0 293.07 0 298.55 0 304.03 0 309.51 0 315 0 320.48 0 325.96 0 331.44 0 336.93 0 342.41 0 347.89 0 353.37 0 358.85 0 364.33 0 369.82 0 375.3 0 380.78 0 386.26 0 391.75 0 397.23 0 402.71 0 408.19 0 413.67 0 419.15 0 424.64 0 430.12 0 435.6 0 441.08 0 446.56 0 452.05 0 457.53 0 463.01 0 468.49 0 473.97 0 479.46 0 484.94 0 490.42 0 495.9 0 501.38 0 506.87 0 512.35 0 517.83 0 523.31 0 528.79 0 534.28 0 539.76 0 545.24 0 550.72 0 556.2 0 561.69 0 567.17 0 572.65 0 578.13 0 583.61 0 589.1 0 594.58 0 600.06 0 605.54 0 611.02 0 616.51 0 621.99 0 627.47 0 632.95 0 638.43 0 643.92 0 649.4 0 654.88 0 660.36 0 665.84 0 671.33 0 676.81 0 682.29 0 687.77 0 693.25 0 698.74 0 704.22 0 709.7 0 715.18 0 720.66 0 726.15 0 731.63 0 737.11 0 742.59 0 748.07 0 753.56 0 759.04 0 764.52 0 770 0.01 770.01 0 775.48 5.48 775.48 10.96 775.48 16.45 775.48 18.44 775.48 19.43 775.48 19.43 772.99 19.43 767.5 19.43 762.02 19.43 756.54 19.43 751.06 19.43 745.58 19.43 740.1 19.43 734.61 19.43 729.13 19.43 723.65 19.43 718.17 19.43 712.68 19.43 707.2 19.43 701.72 19.43 696.24 19.43 690.76 19.43 685.27 19.43 679.79 19.43 674.31 19.43 668.83 19.43 663.35 19.43 657.87 19.43 652.38 19.43 646.9 19.43 641.42 19.43 635.94 19.43 630.46 19.43 624.97 19.43 619.49 19.43 614.01 19.43 608.53 19.43 603.04 19.43 597.56 19.43 592.08 19.43 586.6 19.43 581.12 19.43 575.63 19.43 570.15 19.43 564.67 19.43 559.19 19.43 553.71 19.43 548.23 19.43 542.74 19.43 537.26 19.43 531.78 19.43 526.3 19.43 520.82 19.43 515.33 19.43 509.85 19.43 504.37 19.43 498.89 19.43 493.41 19.43 487.92 19.43 482.44 19.43 476.96 19.43 471.48 19.43 466 19.43 460.51 19.43 455.03 19.43 449.55 19.43 444.07 19.43 438.59 19.43 433.1 19.43 427.62 19.43 422.14 19.43 416.66 19.43 411.18 19.43 405.69 19.43 400.21 19.43 394.73 19.43 389.25 19.43 383.77 19.43 378.28 19.43 372.8 19.43 367.32 19.43 361.84 19.43 356.36 19.43 350.87 19.43 345.39 19.43 339.91 19.43 334.43 19.43 328.95 19.43 323.46 19.43 317.98 19.43 312.5 19.43 307.02 19.43 301.54 19.43 296.05 19.43 290.57 19.43 285.09 19.43 279.61 19.43 274.13 19.43 268.64 19.43 263.16 19.43 257.68 19.43 252.2 19.43 246.72 19.43 241.23 19.43 235.75 19.43 230.27 19.43 224.79 19.43 219.31 19.43 213.82 19.43 208.34 19.43 202.86 19.43 197.38 19.43 191.9 19.43 186.41 19.43 180.93 19.43 175.45 19.43 169.97 19.43 164.49 19.43 159 19.43 153.52 19.43 148.04 19.43 142.56 19.43 137.08 19.43 131.59 19.43 126.11 19.43 120.63 19.43 115.15 19.43 109.67 19.43 104.18 19.43 98.7 19.43 93.22 19.43 87.74 19.43 82.26 19.43 76.77 19.43 71.29 19.43 65.81 19.43 60.33 19.43 54.85 19.43 49.36 19.43 43.88 19.43 38.4 19.43 32.92 19.43 27.44 19.43 21.95 19.43 16.47 19.43 10.99 19.43 5.51 19.43 0.03 19.43 0.03 19.43 0.03" fill="#ccb9b9"/><polygon points="852.95 0.03 852.41 0.03 851.88 0.03 851.34 0.03 850.8 0.03 850.26 0.03 849.73 0.03 849.19 0.03 848.66 0.03 848.12 0.03 847.58 0.03 847.05 0.03 846.51 0.03 845.97 0.03 845.44 0.03 844.9 0.03 844.36 0.03 843.83 0.03 843.29 0.03 842.75 0.03 842.22 0.03 841.68 0.03 841.14 0.03 840.61 0.03 840.07 0.03 839.53 0.03 839 0.03 838.46 0.03 837.92 0.03 837.39 0.03 836.85 0.03 836.32 0.03 835.78 0.03 835.24 0.03 834.96 0.03 834.71 0.03 834.17 0.03 833.97 0.03 833.97 0.67 833.97 2.42 833.97 4.16 833.97 5.91 833.97 7.65 833.97 9.4 833.97 11.14 833.97 12.89 833.97 14.63 833.97 16.38 833.97 18.13 833.97 19.87 833.97 21.62 833.97 23.36 833.97 25.11 833.97 26.85 833.97 28.6 833.97 30.34 833.97 32.09 833.97 33.83 833.97 35.58 833.97 37.33 833.97 39.07 833.97 40.82 833.97 42.56 833.97 44.31 833.97 46.05 833.97 47.8 833.97 49.54 833.97 51.29 833.97 53.03 833.97 54.78 833.97 56.52 833.97 58.27 833.97 60.02 833.97 61.76 833.97 63.51 833.97 65.25 833.97 67 833.97 68.74 833.97 70.49 833.97 72.23 833.97 73.98 833.97 75.72 833.97 77.47 833.97 79.22 833.97 80.96 833.97 82.71 833.97 84.45 833.97 86.2 833.97 87.94 833.97 89.69 833.97 91.43 833.97 93.18 833.97 94.92 833.97 96.67 833.97 98.42 833.97 100.16 833.97 101.91 833.97 103.65 833.97 105.4 833.97 107.14 833.97 108.89 833.97 110.63 833.97 112.38 833.97 114.13 833.97 115.87 833.97 117.62 833.97 119.36 833.97 121.11 833.97 122.85 833.97 124.6 833.97 126.34 833.97 128.09 833.97 129.83 833.97 131.58 833.97 133.32 833.97 135.07 833.97 136.82 833.97 138.56 833.97 140.31 833.97 142.05 833.97 143.8 833.97 145.54 833.97 147.29 833.97 149.03 833.97 150.78 833.97 152.53 833.97 154.27 833.97 156.02 833.97 157.76 833.97 159.51 833.97 161.25 833.97 163 833.97 164.74 833.97 166.49 833.97 168.23 833.97 169.98 833.97 171.72 833.97 173.47 833.97 175.22 833.97 176.96 833.97 178.71 833.97 180.45 833.97 182.2 833.97 183.94 833.97 185.69 833.97 187.43 833.97 189.18 833.97 190.93 833.97 192.67 833.97 194.42 833.97 196.16 833.97 197.91 833.97 199.65 833.97 201.4 833.97 203.14 833.97 204.89 833.97 206.63 833.97 208.38 833.97 210.13 833.97 211.87 833.97 213.62 833.97 215.36 833.97 217.11 833.97 218.85 833.97 220.6 833.97 222.34 833.97 224.09 833.97 225.83 833.97 227.58 833.97 229.32 833.97 231.07 833.97 232.82 833.97 234.56 833.97 236.31 833.97 238.05 833.97 239.8 833.97 241.54 833.97 243.29 833.97 245.03 833.97 246.78 833.97 248.53 833.97 250.27 833.97 775.48 852.41 775.48 853.4 775.48 853.4 187.06 853.4 185.31 853.4 183.57 853.4 181.82 853.4 180.07 853.4 178.33 853.4 176.58 853.4 174.84 853.4 173.09 853.4 171.35 853.4 169.6 853.4 167.86 853.4 166.11 853.4 164.37 853.4 162.62 853.4 160.88 853.4 159.13 853.4 157.38 853.4 155.64 853.4 153.89 853.4 152.15 853.4 150.4 853.4 148.66 853.4 146.91 853.4 145.17 853.4 143.42 853.4 141.68 853.4 139.93 853.4 138.18 853.4 136.44 853.4 134.69 853.4 132.95 853.4 131.2 853.4 129.46 853.4 127.71 853.4 125.97 853.4 124.22 853.4 122.47 853.4 120.73 853.4 118.98 853.4 117.24 853.4 115.49 853.4 113.75 853.4 112 853.4 110.26 853.4 108.51 853.4 106.77 853.4 105.02 853.4 103.28 853.4 101.53 853.4 99.78 853.4 98.04 853.4 96.29 853.4 94.55 853.4 92.8 853.4 91.06 853.4 89.31 853.4 87.57 853.4 85.82 853.4 84.08 853.4 82.33 853.4 80.58 853.4 78.84 853.4 77.09 853.4 75.35 853.4 73.6 853.4 71.86 853.4 70.11 853.4 68.37 853.4 66.62 853.4 64.88 853.4 63.13 853.4 61.38 853.4 59.64 853.4 57.89 853.4 56.15 853.4 54.4 853.4 52.66 853.4 50.91 853.4 49.17 853.4 47.42 853.4 45.67 853.4 43.93 853.4 42.18 853.4 40.44 853.4 38.69 853.4 36.95 853.4 35.2 853.4 33.46 853.4 31.71 853.4 29.97 853.4 28.22 853.4 26.48 853.4 24.73 853.4 22.98 853.4 21.24 853.4 19.49 853.4 17.75 853.4 16 853.4 14.26 853.4 12.51 853.4 10.77 853.4 9.02 853.4 7.28 853.4 5.53 853.4 3.78 853.4 2.04 853.4 0.29 853.4 0.03 852.95 0.03" fill="#ccb9b9"/><polygon points="19.37 0 19.37 0.07 19.37 0.17 19.37 0.26 19.37 0.35 19.37 0.45 19.37 0.54 19.37 0.64 19.37 0.73 19.37 0.83 19.37 0.92 19.37 1.02 19.37 1.11 19.37 1.21 19.37 1.3 19.37 1.4 19.37 1.49 19.37 1.58 19.37 1.68 19.37 1.77 19.37 1.87 19.37 1.96 19.37 2.06 19.37 2.15 19.37 2.25 19.37 2.34 19.37 2.44 19.37 2.53 19.37 2.63 19.37 2.72 19.37 2.82 19.37 2.91 19.37 3 19.37 3.1 19.37 3.19 19.37 3.29 19.37 3.38 19.37 3.48 19.37 3.57 19.37 3.67 19.37 3.76 19.37 3.86 19.37 3.95 19.37 4.05 19.37 4.14 19.37 4.24 19.37 4.33 19.37 4.43 19.37 4.52 19.37 4.62 19.37 4.71 19.37 4.8 19.37 4.9 19.37 4.99 19.37 5.09 19.37 5.18 19.37 5.28 19.37 5.37 19.37 5.47 19.37 5.56 19.37 5.66 19.37 5.75 19.37 5.85 19.37 5.94 19.37 6.04 19.37 6.13 19.37 6.22 19.37 6.32 19.37 6.41 19.37 6.51 19.37 6.6 19.37 6.7 19.37 6.79 19.37 6.89 19.37 6.98 19.37 7.08 19.37 7.17 19.37 7.27 19.37 7.36 19.37 7.46 19.37 7.55 19.37 7.65 19.37 7.74 19.37 7.83 19.37 7.93 19.37 8.02 19.37 8.12 19.37 8.21 19.37 8.31 19.37 8.4 19.37 8.5 19.37 8.59 19.37 8.69 19.37 8.78 19.37 8.88 19.37 8.97 19.37 9.07 19.37 9.16 19.37 9.26 19.37 9.35 19.37 9.45 19.37 9.54 19.37 9.63 19.37 9.73 19.37 9.82 19.37 9.92 19.37 10.01 19.37 10.11 19.37 10.2 19.37 10.3 19.37 10.39 19.37 10.49 19.37 10.58 19.37 10.68 19.37 10.77 19.37 10.87 19.37 10.96 19.37 11.05 19.37 11.15 19.37 11.24 19.37 11.34 19.37 11.43 19.37 11.53 19.37 11.62 19.37 11.72 19.37 11.81 19.37 11.91 19.37 12 19.37 12.1 19.37 12.19 19.37 12.29 19.37 12.38 19.37 12.47 19.37 12.57 19.37 12.66 19.37 12.76 19.37 12.85 19.37 12.95 19.37 13.04 19.37 13.14 19.37 13.23 19.37 13.33 19.37 13.42 19.37 13.52 19.37 13.61 19.37 13.71 19.37 15.28 835.02 15.28 835.02 13.71 835.02 13.61 835.02 13.52 835.02 13.42 835.02 13.33 835.02 13.23 835.02 13.14 835.02 13.04 835.02 12.95 835.02 12.85 835.02 12.76 835.02 12.66 835.02 12.57 835.02 12.47 835.02 12.38 835.02 12.29 835.02 12.19 835.02 12.1 835.02 12 835.02 11.91 835.02 11.81 835.02 11.72 835.02 11.62 835.02 11.53 835.02 11.43 835.02 11.34 835.02 11.24 835.02 11.15 835.02 11.05 835.02 10.96 835.02 10.87 835.02 10.77 835.02 10.68 835.02 10.58 835.02 10.49 835.02 10.39 835.02 10.3 835.02 10.2 835.02 10.11 835.02 10.01 835.02 9.92 835.02 9.82 835.02 9.73 835.02 9.63 835.02 9.54 835.02 9.45 835.02 9.35 835.02 9.26 835.02 9.16 835.02 9.07 835.02 8.97 835.02 8.88 835.02 8.78 835.02 8.69 835.02 8.59 835.02 8.5 835.02 8.4 835.02 8.31 835.02 8.21 835.02 8.12 835.02 8.02 835.02 7.93 835.02 7.83 835.02 7.74 835.02 7.65 835.02 7.55 835.02 7.46 835.02 7.36 835.02 7.27 835.02 7.17 835.02 7.08 835.02 6.98 835.02 6.89 835.02 6.79 835.02 6.7 835.02 6.6 835.02 6.51 835.02 6.41 835.02 6.32 835.02 6.22 835.02 6.13 835.02 6.04 835.02 5.94 835.02 5.85 835.02 5.75 835.02 5.66 835.02 5.56 835.02 5.47 835.02 5.37 835.02 5.28 835.02 5.18 835.02 5.09 835.02 4.99 835.02 4.9 835.02 4.8 835.02 4.71 835.02 4.62 835.02 4.52 835.02 4.43 835.02 4.33 835.02 4.24 835.02 4.14 835.02 4.05 835.02 3.95 835.02 3.86 835.02 3.76 835.02 3.67 835.02 3.57 835.02 3.48 835.02 3.38 835.02 3.29 835.02 3.19 835.02 3.1 835.02 3 835.02 2.91 835.02 2.82 835.02 2.72 835.02 2.63 835.02 2.53 835.02 2.44 835.02 2.34 835.02 2.25 835.02 2.15 835.02 2.06 835.02 1.96 835.02 1.87 835.02 1.77 835.02 1.68 835.02 1.58 835.02 1.49 835.02 1.4 835.02 1.3 835.02 1.21 835.02 1.11 835.02 1.02 835.02 0.92 835.02 0.83 835.02 0.73 835.02 0.64 835.02 0.54 835.02 0.45 835.02 0.35 835.02 0.26 835.02 0.17 835.02 0.07 835.02 0 19.37 0" fill="#ccb9b9"/><polygon points="19.37 175.59 19.37 175.66 19.37 175.76 19.37 175.85 19.37 175.95 19.37 176.04 19.37 176.14 19.37 176.23 19.37 176.33 19.37 176.42 19.37 176.52 19.37 176.61 19.37 176.71 19.37 176.8 19.37 176.9 19.37 176.99 19.37 177.09 19.37 177.18 19.37 177.28 19.37 177.37 19.37 177.46 19.37 177.56 19.37 177.65 19.37 177.75 19.37 177.84 19.37 177.94 19.37 178.03 19.37 178.13 19.37 178.22 19.37 178.32 19.37 178.41 19.37 178.51 19.37 178.6 19.37 178.69 19.37 178.79 19.37 178.88 19.37 178.98 19.37 179.07 19.37 179.17 19.37 179.26 19.37 179.36 19.37 179.45 19.37 179.55 19.37 179.64 19.37 179.74 19.37 179.83 19.37 179.93 19.37 180.02 19.37 180.12 19.37 180.21 19.37 180.31 19.37 180.4 19.37 180.49 19.37 180.59 19.37 180.68 19.37 180.78 19.37 180.87 19.37 180.97 19.37 181.06 19.37 181.16 19.37 181.25 19.37 181.35 19.37 181.44 19.37 181.54 19.37 181.63 19.37 181.72 19.37 181.82 19.37 181.91 19.37 182.01 19.37 182.1 19.37 182.2 19.37 182.29 19.37 182.39 19.37 182.48 19.37 182.58 19.37 182.67 19.37 182.77 19.37 182.86 19.37 182.96 19.37 183.05 19.37 183.15 19.37 183.24 19.37 183.34 19.37 183.43 19.37 183.53 19.37 183.62 19.37 183.71 19.37 183.81 19.37 183.9 19.37 184 19.37 184.09 19.37 184.19 19.37 184.28 19.37 184.38 19.37 184.47 19.37 184.57 19.37 184.66 19.37 184.76 19.37 184.85 19.37 184.94 19.37 185.04 19.37 185.13 19.37 185.23 19.37 185.32 19.37 185.42 19.37 185.51 19.37 185.61 19.37 185.7 19.37 185.8 19.37 185.89 19.37 185.99 19.37 186.08 19.37 186.18 19.37 186.27 19.37 186.37 19.37 186.46 19.37 186.56 19.37 186.65 19.37 186.74 19.37 186.84 19.37 186.93 19.37 187.03 19.37 187.12 19.37 187.22 19.37 187.31 19.37 187.41 19.37 187.5 19.37 187.6 19.37 187.69 19.37 187.79 19.37 187.88 19.37 187.97 19.37 188.07 19.37 188.16 19.37 188.26 19.37 188.35 19.37 188.45 19.37 188.54 19.37 188.64 19.37 188.73 19.37 188.83 19.37 188.92 19.37 189.02 19.37 189.11 19.37 189.21 19.37 189.3 19.37 190.88 835.02 190.88 835.02 189.3 835.02 189.21 835.02 189.11 835.02 189.02 835.02 188.92 835.02 188.83 835.02 188.73 835.02 188.64 835.02 188.54 835.02 188.45 835.02 188.35 835.02 188.26 835.02 188.16 835.02 188.07 835.02 187.97 835.02 187.88 835.02 187.79 835.02 187.69 835.02 187.6 835.02 187.5 835.02 187.41 835.02 187.31 835.02 187.22 835.02 187.12 835.02 187.03 835.02 186.93 835.02 186.84 835.02 186.74 835.02 186.65 835.02 186.56 835.02 186.46 835.02 186.37 835.02 186.27 835.02 186.18 835.02 186.08 835.02 185.99 835.02 185.89 835.02 185.8 835.02 185.7 835.02 185.61 835.02 185.51 835.02 185.42 835.02 185.32 835.02 185.23 835.02 185.13 835.02 185.04 835.02 184.94 835.02 184.85 835.02 184.76 835.02 184.66 835.02 184.57 835.02 184.47 835.02 184.38 835.02 184.28 835.02 184.19 835.02 184.09 835.02 184 835.02 183.9 835.02 183.81 835.02 183.71 835.02 183.62 835.02 183.53 835.02 183.43 835.02 183.34 835.02 183.24 835.02 183.15 835.02 183.05 835.02 182.96 835.02 182.86 835.02 182.77 835.02 182.67 835.02 182.58 835.02 182.48 835.02 182.39 835.02 182.29 835.02 182.2 835.02 182.1 835.02 182.01 835.02 181.91 835.02 181.82 835.02 181.72 835.02 181.63 835.02 181.54 835.02 181.44 835.02 181.35 835.02 181.25 835.02 181.16 835.02 181.06 835.02 180.97 835.02 180.87 835.02 180.78 835.02 180.68 835.02 180.59 835.02 180.49 835.02 180.4 835.02 180.31 835.02 180.21 835.02 180.12 835.02 180.02 835.02 179.93 835.02 179.83 835.02 179.74 835.02 179.64 835.02 179.55 835.02 179.45 835.02 179.36 835.02 179.26 835.02 179.17 835.02 179.07 835.02 178.98 835.02 178.88 835.02 178.79 835.02 178.69 835.02 178.6 835.02 178.51 835.02 178.41 835.02 178.32 835.02 178.22 835.02 178.13 835.02 178.03 835.02 177.94 835.02 177.84 835.02 177.75 835.02 177.65 835.02 177.56 835.02 177.46 835.02 177.37 835.02 177.28 835.02 177.18 835.02 177.09 835.02 176.99 835.02 176.9 835.02 176.8 835.02 176.71 835.02 176.61 835.02 176.52 835.02 176.42 835.02 176.33 835.02 176.23 835.02 176.14 835.02 176.04 835.02 175.95 835.02 175.85 835.02 175.76 835.02 175.66 835.02 175.59 19.37 175.59" fill="#ccb9b9"/><polygon points="19.37 357.75 19.37 357.82 19.37 357.92 19.37 358.01 19.37 358.11 19.37 358.2 19.37 358.3 19.37 358.39 19.37 358.49 19.37 358.58 19.37 358.68 19.37 358.77 19.37 358.87 19.37 358.96 19.37 359.06 19.37 359.15 19.37 359.24 19.37 359.34 19.37 359.43 19.37 359.53 19.37 359.62 19.37 359.72 19.37 359.81 19.37 359.91 19.37 360 19.37 360.1 19.37 360.19 19.37 360.29 19.37 360.38 19.37 360.48 19.37 360.57 19.37 360.67 19.37 360.76 19.37 360.85 19.37 360.95 19.37 361.04 19.37 361.14 19.37 361.23 19.37 361.33 19.37 361.42 19.37 361.52 19.37 361.61 19.37 361.71 19.37 361.8 19.37 361.9 19.37 361.99 19.37 362.08 19.37 362.18 19.37 362.27 19.37 362.37 19.37 362.46 19.37 362.56 19.37 362.65 19.37 362.75 19.37 362.84 19.37 362.94 19.37 363.03 19.37 363.13 19.37 363.22 19.37 363.32 19.37 363.41 19.37 363.51 19.37 363.6 19.37 363.69 19.37 363.79 19.37 363.88 19.37 363.98 19.37 364.07 19.37 364.17 19.37 364.26 19.37 364.36 19.37 364.45 19.37 364.55 19.37 364.64 19.37 364.74 19.37 364.83 19.37 364.93 19.37 365.02 19.37 365.12 19.37 365.21 19.37 365.31 19.37 365.4 19.37 365.49 19.37 365.59 19.37 365.68 19.37 365.78 19.37 365.87 19.37 365.97 19.37 366.06 19.37 366.16 19.37 366.25 19.37 366.35 19.37 366.44 19.37 366.54 19.37 366.63 19.37 366.73 19.37 366.82 19.37 366.92 19.37 367.01 19.37 367.1 19.37 367.2 19.37 367.29 19.37 367.39 19.37 367.48 19.37 367.58 19.37 367.67 19.37 367.77 19.37 367.86 19.37 367.96 19.37 368.05 19.37 368.15 19.37 368.24 19.37 368.33 19.37 368.43 19.37 368.52 19.37 368.62 19.37 368.71 19.37 368.81 19.37 368.9 19.37 369 19.37 369.09 19.37 369.19 19.37 369.28 19.37 369.38 19.37 369.47 19.37 369.57 19.37 369.66 19.37 369.76 19.37 369.85 19.37 369.94 19.37 370.04 19.37 370.13 19.37 370.23 19.37 370.32 19.37 370.42 19.37 370.51 19.37 370.61 19.37 370.7 19.37 370.8 19.37 370.89 19.37 370.99 19.37 371.08 19.37 371.18 19.37 371.27 19.37 371.37 19.37 371.46 19.37 373.04 835.02 373.04 835.02 371.46 835.02 371.37 835.02 371.27 835.02 371.18 835.02 371.08 835.02 370.99 835.02 370.89 835.02 370.8 835.02 370.7 835.02 370.61 835.02 370.51 835.02 370.42 835.02 370.32 835.02 370.23 835.02 370.13 835.02 370.04 835.02 369.94 835.02 369.85 835.02 369.76 835.02 369.66 835.02 369.57 835.02 369.47 835.02 369.38 835.02 369.28 835.02 369.19 835.02 369.09 835.02 369 835.02 368.9 835.02 368.81 835.02 368.71 835.02 368.62 835.02 368.52 835.02 368.43 835.02 368.33 835.02 368.24 835.02 368.15 835.02 368.05 835.02 367.96 835.02 367.86 835.02 367.77 835.02 367.67 835.02 367.58 835.02 367.48 835.02 367.39 835.02 367.29 835.02 367.2 835.02 367.1 835.02 367.01 835.02 366.92 835.02 366.82 835.02 366.73 835.02 366.63 835.02 366.54 835.02 366.44 835.02 366.35 835.02 366.25 835.02 366.16 835.02 366.06 835.02 365.97 835.02 365.87 835.02 365.78 835.02 365.68 835.02 365.59 835.02 365.49 835.02 365.4 835.02 365.31 835.02 365.21 835.02 365.12 835.02 365.02 835.02 364.93 835.02 364.83 835.02 364.74 835.02 364.64 835.02 364.55 835.02 364.45 835.02 364.36 835.02 364.26 835.02 364.17 835.02 364.07 835.02 363.98 835.02 363.88 835.02 363.79 835.02 363.69 835.02 363.6 835.02 363.51 835.02 363.41 835.02 363.32 835.02 363.22 835.02 363.13 835.02 363.03 835.02 362.94 835.02 362.84 835.02 362.75 835.02 362.65 835.02 362.56 835.02 362.46 835.02 362.37 835.02 362.27 835.02 362.18 835.02 362.08 835.02 361.99 835.02 361.9 835.02 361.8 835.02 361.71 835.02 361.61 835.02 361.52 835.02 361.42 835.02 361.33 835.02 361.23 835.02 361.14 835.02 361.04 835.02 360.95 835.02 360.85 835.02 360.76 835.02 360.67 835.02 360.57 835.02 360.48 835.02 360.38 835.02 360.29 835.02 360.19 835.02 360.1 835.02 360 835.02 359.91 835.02 359.81 835.02 359.72 835.02 359.62 835.02 359.53 835.02 359.43 835.02 359.34 835.02 359.24 835.02 359.15 835.02 359.06 835.02 358.96 835.02 358.87 835.02 358.77 835.02 358.68 835.02 358.58 835.02 358.49 835.02 358.39 835.02 358.3 835.02 358.2 835.02 358.11 835.02 358.01 835.02 357.92 835.02 357.82 835.02 357.75 19.37 357.75" fill="#ccb9b9"/><polygon points="19.37 539.64 19.37 539.71 19.37 539.81 19.37 539.9 19.37 540 19.37 540.09 19.37 540.19 19.37 540.28 19.37 540.38 19.37 540.47 19.37 540.57 19.37 540.66 19.37 540.75 19.37 540.85 19.37 540.94 19.37 541.04 19.37 541.13 19.37 541.23 19.37 541.32 19.37 541.42 19.37 541.51 19.37 541.61 19.37 541.7 19.37 541.8 19.37 541.89 19.37 541.99 19.37 542.08 19.37 542.17 19.37 542.27 19.37 542.36 19.37 542.46 19.37 542.55 19.37 542.65 19.37 542.74 19.37 542.84 19.37 542.93 19.37 543.03 19.37 543.12 19.37 543.22 19.37 543.31 19.37 543.41 19.37 543.5 19.37 543.6 19.37 543.69 19.37 543.78 19.37 543.88 19.37 543.97 19.37 544.07 19.37 544.16 19.37 544.26 19.37 544.35 19.37 544.45 19.37 544.54 19.37 544.64 19.37 544.73 19.37 544.83 19.37 544.92 19.37 545.01 19.37 545.11 19.37 545.21 19.37 545.3 19.37 545.39 19.37 545.49 19.37 545.58 19.37 545.68 19.37 545.77 19.37 545.87 19.37 545.96 19.37 546.06 19.37 546.15 19.37 546.25 19.37 546.34 19.37 546.44 19.37 546.53 19.37 546.63 19.37 546.72 19.37 546.82 19.37 546.91 19.37 547 19.37 547.1 19.37 547.19 19.37 547.29 19.37 547.38 19.37 547.48 19.37 547.57 19.37 547.67 19.37 547.76 19.37 547.86 19.37 547.95 19.37 548.05 19.37 548.14 19.37 548.24 19.37 548.33 19.37 548.42 19.37 548.52 19.37 548.61 19.37 548.71 19.37 548.8 19.37 548.9 19.37 548.99 19.37 549.09 19.37 549.18 19.37 549.28 19.37 549.37 19.37 549.47 19.37 549.56 19.37 549.65 19.37 549.75 19.37 549.85 19.37 549.94 19.37 550.03 19.37 550.13 19.37 550.22 19.37 550.32 19.37 550.41 19.37 550.51 19.37 550.6 19.37 550.7 19.37 550.79 19.37 550.89 19.37 550.98 19.37 551.08 19.37 551.17 19.37 551.26 19.37 551.36 19.37 551.46 19.37 551.55 19.37 551.64 19.37 551.74 19.37 551.83 19.37 551.93 19.37 552.02 19.37 552.12 19.37 552.21 19.37 552.31 19.37 552.4 19.37 552.5 19.37 552.59 19.37 552.69 19.37 552.78 19.37 552.88 19.37 552.97 19.37 553.07 19.37 553.16 19.37 553.25 19.37 553.35 19.37 554.92 835.02 554.92 835.02 553.35 835.02 553.25 835.02 553.16 835.02 553.07 835.02 552.97 835.02 552.88 835.02 552.78 835.02 552.69 835.02 552.59 835.02 552.5 835.02 552.4 835.02 552.31 835.02 552.21 835.02 552.12 835.02 552.02 835.02 551.93 835.02 551.83 835.02 551.74 835.02 551.64 835.02 551.55 835.02 551.46 835.02 551.36 835.02 551.26 835.02 551.17 835.02 551.08 835.02 550.98 835.02 550.89 835.02 550.79 835.02 550.7 835.02 550.6 835.02 550.51 835.02 550.41 835.02 550.32 835.02 550.22 835.02 550.13 835.02 550.03 835.02 549.94 835.02 549.85 835.02 549.75 835.02 549.65 835.02 549.56 835.02 549.47 835.02 549.37 835.02 549.28 835.02 549.18 835.02 549.09 835.02 548.99 835.02 548.9 835.02 548.8 835.02 548.71 835.02 548.61 835.02 548.52 835.02 548.42 835.02 548.33 835.02 548.24 835.02 548.14 835.02 548.05 835.02 547.95 835.02 547.86 835.02 547.76 835.02 547.67 835.02 547.57 835.02 547.48 835.02 547.38 835.02 547.29 835.02 547.19 835.02 547.1 835.02 547 835.02 546.91 835.02 546.82 835.02 546.72 835.02 546.63 835.02 546.53 835.02 546.44 835.02 546.34 835.02 546.25 835.02 546.15 835.02 546.06 835.02 545.96 835.02 545.87 835.02 545.77 835.02 545.68 835.02 545.58 835.02 545.49 835.02 545.39 835.02 545.3 835.02 545.21 835.02 545.11 835.02 545.01 835.02 544.92 835.02 544.83 835.02 544.73 835.02 544.64 835.02 544.54 835.02 544.45 835.02 544.35 835.02 544.26 835.02 544.16 835.02 544.07 835.02 543.97 835.02 543.88 835.02 543.78 835.02 543.69 835.02 543.6 835.02 543.5 835.02 543.41 835.02 543.31 835.02 543.22 835.02 543.12 835.02 543.03 835.02 542.93 835.02 542.84 835.02 542.74 835.02 542.65 835.02 542.55 835.02 542.46 835.02 542.36 835.02 542.27 835.02 542.17 835.02 542.08 835.02 541.99 835.02 541.89 835.02 541.8 835.02 541.7 835.02 541.61 835.02 541.51 835.02 541.42 835.02 541.32 835.02 541.23 835.02 541.13 835.02 541.04 835.02 540.94 835.02 540.85 835.02 540.75 835.02 540.66 835.02 540.57 835.02 540.47 835.02 540.38 835.02 540.28 835.02 540.19 835.02 540.09 835.02 540 835.02 539.9 835.02 539.81 835.02 539.71 835.02 539.64 19.37 539.64" fill="#ccb9b9"/><polygon points="18.38 714.69 18.38 714.76 18.38 714.85 18.38 714.95 18.38 715.04 18.38 715.14 18.38 715.23 18.38 715.33 18.38 715.42 18.38 715.51 18.38 715.61 18.38 715.7 18.38 715.8 18.38 715.89 18.38 715.99 18.38 716.08 18.38 716.18 18.38 716.27 18.38 716.37 18.38 716.46 18.38 716.56 18.38 716.65 18.38 716.75 18.38 716.84 18.38 716.93 18.38 717.03 18.38 717.13 18.38 717.22 18.38 717.31 18.38 717.41 18.38 717.5 18.38 717.6 18.38 717.69 18.38 717.79 18.38 717.88 18.38 717.98 18.38 718.07 18.38 718.17 18.38 718.26 18.38 718.36 18.38 718.45 18.38 718.54 18.38 718.64 18.38 718.74 18.38 718.83 18.38 718.92 18.38 719.02 18.38 719.11 18.38 719.21 18.38 719.3 18.38 719.4 18.38 719.49 18.38 719.59 18.38 719.68 18.38 719.78 18.38 719.87 18.38 719.97 18.38 720.06 18.38 720.15 18.38 720.25 18.38 720.34 18.38 720.44 18.38 720.53 18.38 720.63 18.38 720.72 18.38 720.82 18.38 720.91 18.38 721.01 18.38 721.1 18.38 721.2 18.38 721.29 18.38 721.39 18.38 721.48 18.38 721.58 18.38 721.67 18.38 721.76 18.38 721.86 18.38 721.95 18.38 722.05 18.38 722.14 18.38 722.24 18.38 722.33 18.38 722.43 18.38 722.52 18.38 722.62 18.38 722.71 18.38 722.81 18.38 722.9 18.38 723 18.38 723.09 18.38 723.18 18.38 723.28 18.38 723.38 18.38 723.47 18.38 723.56 18.38 723.66 18.38 723.75 18.38 723.85 18.38 723.94 18.38 724.04 18.38 724.13 18.38 724.23 18.38 724.32 18.38 724.42 18.38 724.51 18.38 724.61 18.38 724.7 18.38 724.79 18.38 724.89 18.38 724.99 18.38 725.08 18.38 725.17 18.38 725.27 18.38 725.36 18.38 725.46 18.38 725.55 18.38 725.65 18.38 725.74 18.38 725.84 18.38 725.93 18.38 726.03 18.38 726.12 18.38 726.22 18.38 726.31 18.38 726.4 18.38 726.5 18.38 726.59 18.38 726.69 18.38 726.78 18.38 726.88 18.38 726.97 18.38 727.07 18.38 727.16 18.38 727.26 18.38 727.35 18.38 727.45 18.38 727.54 18.38 727.64 18.38 727.73 18.38 727.83 18.38 727.92 18.38 728.01 18.38 728.11 18.38 728.2 18.38 728.3 18.38 728.39 18.38 729.97 834.03 729.97 834.03 728.39 834.03 728.3 834.03 728.2 834.03 728.11 834.03 728.01 834.03 727.92 834.03 727.83 834.03 727.73 834.03 727.64 834.03 727.54 834.03 727.45 834.03 727.35 834.03 727.26 834.03 727.16 834.03 727.07 834.03 726.97 834.03 726.88 834.03 726.78 834.03 726.69 834.03 726.59 834.03 726.5 834.03 726.4 834.03 726.31 834.03 726.22 834.03 726.12 834.03 726.03 834.03 725.93 834.03 725.84 834.03 725.74 834.03 725.65 834.03 725.55 834.03 725.46 834.03 725.36 834.03 725.27 834.03 725.17 834.03 725.08 834.03 724.99 834.03 724.89 834.03 724.79 834.03 724.7 834.03 724.61 834.03 724.51 834.03 724.42 834.03 724.32 834.03 724.23 834.03 724.13 834.03 724.04 834.03 723.94 834.03 723.85 834.03 723.75 834.03 723.66 834.03 723.56 834.03 723.47 834.03 723.38 834.03 723.28 834.03 723.18 834.03 723.09 834.03 723 834.03 722.9 834.03 722.81 834.03 722.71 834.03 722.62 834.03 722.52 834.03 722.43 834.03 722.33 834.03 722.24 834.03 722.14 834.03 722.05 834.03 721.95 834.03 721.86 834.03 721.76 834.03 721.67 834.03 721.58 834.03 721.48 834.03 721.39 834.03 721.29 834.03 721.2 834.03 721.1 834.03 721.01 834.03 720.91 834.03 720.82 834.03 720.72 834.03 720.63 834.03 720.53 834.03 720.44 834.03 720.34 834.03 720.25 834.03 720.15 834.03 720.06 834.03 719.97 834.03 719.87 834.03 719.78 834.03 719.68 834.03 719.59 834.03 719.49 834.03 719.4 834.03 719.3 834.03 719.21 834.03 719.11 834.03 719.02 834.03 718.92 834.03 718.83 834.03 718.74 834.03 718.64 834.03 718.54 834.03 718.45 834.03 718.36 834.03 718.26 834.03 718.17 834.03 718.07 834.03 717.98 834.03 717.88 834.03 717.79 834.03 717.69 834.03 717.6 834.03 717.5 834.03 717.41 834.03 717.31 834.03 717.22 834.03 717.13 834.03 717.03 834.03 716.93 834.03 716.84 834.03 716.75 834.03 716.65 834.03 716.56 834.03 716.46 834.03 716.37 834.03 716.27 834.03 716.18 834.03 716.08 834.03 715.99 834.03 715.89 834.03 715.8 834.03 715.7 834.03 715.61 834.03 715.51 834.03 715.42 834.03 715.33 834.03 715.23 834.03 715.14 834.03 715.04 834.03 714.95 834.03 714.85 834.03 714.76 834.03 714.69 18.38 714.69" fill="#ccb9b9"/></g></g></svg>